<svg width="23" height="25" viewBox="0 0 23 25" fill="none" xmlns="http://www.w3.org/2000/svg">
<path fill-rule="evenodd" clip-rule="evenodd" d="M4.99995 10.7899L5.00046 12.9158C3.23431 13.6873 2 15.4495 2 17.5C2 20.2614 4.23858 22.5 7 22.5C9.05011 22.5 10.812 21.2662 11.5837 19.5005L13.7098 19.501C12.8489 22.392 10.1706 24.5 7 24.5C3.13401 24.5 0 21.366 0 17.5C0 14.329 2.10849 11.6505 4.99995 10.7899ZM9.72628 7.32286L9.84518 7.43096L12.915 10.5H17V12.5H12.0858L9 9.415V15.1667C9 15.3278 9.11426 15.4621 9.26616 15.4932L9.33333 15.5H14.9142L20 20.585L21.5 19.0858L22.9142 20.5L20 23.4142L14.085 17.5H9.33333C8.09836 17.5 7.08748 16.5406 7.00538 15.3264L7 15.1667V8.60948C7 8.16745 7.17559 7.74353 7.48816 7.43096C8.10074 6.81838 9.07155 6.78234 9.72628 7.32286ZM9 0.5C10.3807 0.5 11.5 1.61929 11.5 3C11.5 4.38071 10.3807 5.5 9 5.5C7.61929 5.5 6.5 4.38071 6.5 3C6.5 1.61929 7.61929 0.5 9 0.5Z" fill="#007FAB"/>
</svg>
