<svg width="16" height="16" viewBox="0 0 16 16" fill="none" xmlns="http://www.w3.org/2000/svg">
<path fill-rule="evenodd" clip-rule="evenodd" d="M8.33301 8.62491V1.33203H7.33301V8.62492L4.49967 5.79159L3.79256 6.49869L7.833 10.5391L11.8734 6.49869L11.1663 5.79159L8.33301 8.62491ZM2.33301 9.33203V12.4987C2.33301 12.7197 2.42081 12.9317 2.57709 13.088C2.73337 13.2442 2.94533 13.332 3.16634 13.332H12.4997C12.7207 13.332 12.9326 13.2442 13.0889 13.088C13.2452 12.9317 13.333 12.7197 13.333 12.4987V9.33203H14.333V12.4987C14.333 12.9849 14.1399 13.4512 13.796 13.7951C13.4522 14.1389 12.9859 14.332 12.4997 14.332H3.16634C2.68011 14.332 2.2138 14.1389 1.86998 13.7951C1.52616 13.4512 1.33301 12.9849 1.33301 12.4987V9.33203H2.33301Z" fill="#511E62"/>
</svg>
