<svg width="16" height="16" viewBox="0 0 16 16" fill="none" xmlns="http://www.w3.org/2000/svg">
<path fill-rule="evenodd" clip-rule="evenodd" d="M5.16659 11.6667C5.16659 11.3906 4.94273 11.1667 4.66659 11.1667H0.833252C0.833252 11.1667 0.833252 11.3906 0.833252 11.6667C0.833252 11.9428 0.833252 12.1667 0.833252 12.1667H4.66659C4.94273 12.1667 5.16659 11.9428 5.16659 11.6667Z" fill="#58595B"/>
<path fill-rule="evenodd" clip-rule="evenodd" d="M10.8333 4.33331C10.8333 4.05717 11.0571 3.83331 11.3333 3.83331H15.1666C15.1666 3.83331 15.1666 4.05717 15.1666 4.33331C15.1666 4.60945 15.1666 4.83331 15.1666 4.83331H11.3333C11.0571 4.83331 10.8333 4.60945 10.8333 4.33331Z" fill="#58595B"/>
<path fill-rule="evenodd" clip-rule="evenodd" d="M15.1665 11.6667C15.1665 11.3906 15.1665 11.1667 15.1665 11.1667H8.6665C8.39037 11.1667 8.1665 11.3906 8.1665 11.6667C8.1665 11.9428 8.39037 12.1667 8.6665 12.1667H15.1665C15.1665 12.1667 15.1665 11.9428 15.1665 11.6667Z" fill="#58595B"/>
<path fill-rule="evenodd" clip-rule="evenodd" d="M0.833264 4.33331C0.833264 4.05717 0.833264 3.83331 0.833264 3.83331H7.33326C7.6094 3.83331 7.83326 4.05717 7.83326 4.33331C7.83326 4.60945 7.6094 4.83331 7.33326 4.83331H0.833252C0.833252 4.83331 0.833264 4.60945 0.833264 4.33331Z" fill="#58595B"/>
<path fill-rule="evenodd" clip-rule="evenodd" d="M6.6665 10.0999C7.4949 10.0999 8.1665 10.7715 8.1665 11.5999C8.1665 12.4283 7.4949 13.0999 6.6665 13.0999C5.83808 13.0999 5.1665 12.4283 5.1665 11.5999C5.1665 10.7715 5.83808 10.0999 6.6665 10.0999ZM9.1665 11.5999C9.1665 10.2192 8.04724 9.09991 6.6665 9.09991C5.28579 9.09991 4.1665 10.2192 4.1665 11.5999C4.1665 12.9806 5.28579 14.0999 6.6665 14.0999C8.04724 14.0999 9.1665 12.9806 9.1665 11.5999Z" fill="#58595B"/>
<path fill-rule="evenodd" clip-rule="evenodd" d="M9.33325 2.7666C8.50485 2.7666 7.83325 3.43817 7.83325 4.2666C7.83325 5.09503 8.50485 5.7666 9.33325 5.7666C10.1617 5.7666 10.8333 5.09503 10.8333 4.2666C10.8333 3.43817 10.1617 2.7666 9.33325 2.7666ZM6.83325 4.2666C6.83325 2.88589 7.95252 1.7666 9.33325 1.7666C10.714 1.7666 11.8333 2.88589 11.8333 4.2666C11.8333 5.64731 10.714 6.7666 9.33325 6.7666C7.95252 6.7666 6.83325 5.64731 6.83325 4.2666Z" fill="#58595B"/>
</svg>
