<svg width="27" height="24" viewBox="0 0 27 24" fill="none" xmlns="http://www.w3.org/2000/svg">
<path fill-rule="evenodd" clip-rule="evenodd" d="M26.5 12C26.7761 12 27 12.2239 27 12.5C27 12.7761 26.7761 13 26.5 13H25L26 24H25L24 13H14L13 24H12L13 13H11.5C11.2239 13 11 12.7761 11 12.5C11 12.2239 11.2239 12 11.5 12H26.5ZM8 4C8.55229 4 9 4.44772 9 5V14C9.55229 14 10 14.4477 10 15V18H9V24H8V18H2V24H1V18H0V15C0 14.4477 0.447715 14 1 14V5C1 4.44772 1.44772 4 2 4H8ZM9 15H1V17H9V15ZM8 5H2V14H8V5ZM24 0V3H27V4H24V7H23V3.999L20 4V3L23 2.999V0H24Z" fill="#58595B"/>
</svg>
