<svg width="22" height="18" viewBox="0 0 22 18" fill="none" xmlns="http://www.w3.org/2000/svg">
<path fill-rule="evenodd" clip-rule="evenodd" d="M22 17V18H0V17H22ZM13.5858 0C13.851 0 14.1054 0.105357 14.2929 0.292893C14.6534 0.653377 14.6811 1.22061 14.3761 1.6129L14.2929 1.70711L13 3V15H3L2.999 13H1V12H2.999V11H1C0.487164 11 0.0644928 10.614 0.00672773 10.1166L0 10V3C0 2.48716 0.38604 2.06449 0.883379 2.00673L1 2H2.999L3 0H13.5858ZM13.5858 1H4V14H12V2.58579L13.5858 1ZM19 5V8H22V9H19V12H18V8.999L15 9V8L18 7.999V5H19ZM2.999 3H1V10H2.999V3Z" fill="#58595B"/>
</svg>
