<svg width="21" height="19" viewBox="0 0 21 19" fill="none" xmlns="http://www.w3.org/2000/svg">
<path fill-rule="evenodd" clip-rule="evenodd" d="M20.5 10C20.7761 10 21 10.2239 21 10.5C21 10.7761 20.7761 11 20.5 11H19L20 19H19L18 11H12L11 19H10L11 11H9.5C9.22386 11 9 10.7761 9 10.5C9 10.2239 9.22386 10 9.5 10H20.5ZM6 5C6.55228 5 7 5.44772 7 6V12C7.55228 12 8 12.4477 8 13V15H7V19H6V15H2V19H1V15H0V13C0 12.4477 0.447715 12 1 12V6C1 5.44772 1.44772 5 2 5H6ZM7 13H1V14H7V13ZM6 6H2V12H6V6ZM18 0V3H21V4H18V7H17V3.999L14 4V3L17 2.999V0H18Z" fill="#58595B"/>
</svg>
