<svg width="28" height="28" viewBox="0 0 28 28" fill="none" xmlns="http://www.w3.org/2000/svg">
<circle cx="14" cy="14" r="14" fill="#D9C9FC" fill-opacity="0.3"/>
<path d="M5.00005 9.77139C5.0137 8.87955 5.33256 8.11398 5.96065 7.48109C6.58311 6.85303 7.20476 6.22497 7.83526 5.60575C8.65851 4.79594 9.81508 4.79916 10.6327 5.60897C11.3652 6.33514 12.0937 7.06453 12.819 7.79794C13.6302 8.61739 13.6342 9.773 12.8334 10.5989C12.5354 10.9069 12.2342 11.2117 11.929 11.5124C11.8471 11.5937 11.8238 11.658 11.8736 11.7722C12.7475 13.7971 14.194 15.2454 16.2164 16.1204C16.3296 16.1694 16.3947 16.1493 16.4758 16.0657C16.785 15.7496 17.0983 15.4376 17.4147 15.1296C18.2332 14.3335 19.3849 14.3359 20.1977 15.1401C20.931 15.8654 21.6595 16.5948 22.384 17.329C23.2032 18.1582 23.2056 19.3162 22.3896 20.1437C21.7647 20.7782 21.135 21.4078 20.5013 22.0343C19.5054 23.0186 18.1312 23.2679 16.8533 22.7018C12.2383 20.6583 8.68823 17.4384 6.23132 13.0235C5.87712 12.3874 5.58075 11.7191 5.27152 11.0589C5.08117 10.6544 4.99764 10.2209 5.00005 9.77139ZM18.2026 21.7544C18.7375 21.7102 19.2018 21.5156 19.5969 21.1215C20.2138 20.5072 20.8282 19.8912 21.4426 19.2743C21.7808 18.935 21.78 18.5803 21.441 18.241C20.7262 17.5261 20.0114 16.8112 19.295 16.0978C18.9552 15.7593 18.5994 15.7585 18.2629 16.0938C17.846 16.5096 17.4284 16.9253 17.0147 17.3451C16.7939 17.5695 16.5401 17.6322 16.2453 17.5253C13.443 16.5024 11.5226 14.594 10.4938 11.7875C10.3749 11.4642 10.4383 11.2052 10.6809 10.968C11.1026 10.5563 11.517 10.1373 11.9306 9.71831C12.2415 9.40307 12.2415 9.042 11.9331 8.72515C11.2126 7.98772 10.4914 7.25029 9.7685 6.51527C9.44402 6.18476 9.07857 6.18476 8.75007 6.51206C8.13886 7.12162 7.52764 7.73199 6.91883 8.34558C6.28674 8.98249 6.13494 9.7738 6.49797 10.5965C8.72678 15.6443 12.3619 19.2904 17.3995 21.5285C17.6509 21.6402 17.9336 21.6804 18.2018 21.7544H18.2026Z" fill="#511E62"/>
</svg>
